<svg width="38" height="38" viewBox="0 0 38 38" fill="none" xmlns="http://www.w3.org/2000/svg">
<g id="next 1">
<path id="Vector" d="M28.4686 12.2564L27.3916 22.9266C27.3581 23.2087 27.2152 23.4664 26.9937 23.6442C26.7721 23.8219 26.4896 23.9055 26.207 23.877C25.9244 23.8485 25.6642 23.7101 25.4827 23.4916C25.3011 23.2732 25.2126 22.9922 25.2362 22.7091L26.0506 14.6409L11.2943 26.6913C11.0718 26.8731 10.7862 26.9589 10.5003 26.9301C10.2144 26.9012 9.95175 26.76 9.77002 26.5375C9.58828 26.3149 9.5024 26.0293 9.53125 25.7434C9.5601 25.4576 9.70134 25.1949 9.92388 25.0131L24.6801 12.9627L16.6119 12.1483C16.4685 12.1364 16.329 12.096 16.2014 12.0295C16.0738 11.963 15.9608 11.8718 15.8688 11.7612C15.7769 11.6506 15.7079 11.5228 15.6658 11.3852C15.6238 11.2476 15.6096 11.1031 15.6241 10.9599C15.6385 10.8168 15.6813 10.678 15.75 10.5516C15.8187 10.4252 15.9118 10.3137 16.024 10.2237C16.1362 10.1337 16.2652 10.0669 16.4035 10.0273C16.5418 9.98768 16.6866 9.97599 16.8294 9.99293L27.4997 11.0699C27.7855 11.0988 28.0481 11.2401 28.2298 11.4626C28.4115 11.685 28.4974 11.9706 28.4686 12.2564Z" fill="white"/>
</g>
</svg>
