<svg width="52" height="52" viewBox="0 0 52 52" fill="none" xmlns="http://www.w3.org/2000/svg">
<g id="deal 1" clip-path="url(#clip0_2338_120)">
<g id="Group">
<path id="Vector" d="M51.4091 30.751L45.5 16.1516C45.3188 15.7025 44.98 15.3558 44.5309 15.1667C44.0818 14.9855 43.5854 14.9934 43.1442 15.1904L38.543 17.2388C37.763 17.5697 37.3454 18.4207 37.5109 19.2322L36.2897 19.9176C35.88 20.154 35.3836 20.2407 34.903 20.1776L26.4176 18.9249C24.9363 18.7122 23.4157 19.2007 22.3442 20.2328L21.7218 20.8316H17.0103C16.7976 20.8316 16.5848 20.7528 16.4273 20.611L16.0097 20.2564C16.3012 19.5394 16.1042 18.7043 15.4739 18.2079L11.9127 15.3952C11.5345 15.0958 11.0618 14.9619 10.5812 15.0328C10.1085 15.0958 9.67514 15.3558 9.3915 15.734L0.811503 27.3631C0.24423 28.1273 0.378169 29.1988 1.13453 29.8055L4.68787 32.6104C5.0109 32.8625 5.38908 32.9885 5.78302 32.9885C5.86181 32.9885 5.94847 32.9807 6.02726 32.9728C6.49999 32.9097 6.92544 32.6576 7.20908 32.2637L7.24059 32.2243L7.75271 32.6104C8.05211 32.8231 8.22544 33.1855 8.22544 33.5637V35.6831L6.90181 37.3849C5.71999 38.9213 5.98787 41.1352 7.51635 42.317C8.13877 42.8055 8.89514 43.0655 9.67514 43.0655C9.81696 43.0655 9.96665 43.0576 10.1085 43.0419C10.266 43.0182 10.4157 42.9788 10.5654 42.9394C10.5654 42.9867 10.5576 43.0261 10.5576 43.0734C10.5576 44.0819 11.0145 45.0273 11.8024 45.6734C12.417 46.1619 13.1576 46.4061 13.8903 46.4061C14.3473 46.4061 14.8042 46.3037 15.2297 46.1225V46.1619C15.34 46.9891 15.7733 47.7219 16.4036 48.1867L16.5454 48.297C17.0812 48.691 17.7194 48.9037 18.3733 48.9037C18.523 48.9037 18.6727 48.8958 18.8303 48.8722C19.1691 48.8249 19.4764 48.7067 19.7757 48.557C19.9412 49.4001 20.4218 50.1249 21.1388 50.5819L21.2412 50.6528C21.7533 50.9916 22.3442 51.1649 22.943 51.1649C23.1636 51.1649 23.3764 51.1413 23.597 51.094C24.4242 50.9207 25.1254 50.4322 25.5903 49.7231L25.7242 49.5182C26.2836 49.9437 26.9533 50.1643 27.6703 50.1643C28.5133 50.1643 29.3406 49.8176 29.9394 49.2267C30.5933 48.5728 30.94 47.6588 30.877 46.737C30.877 46.6819 30.8691 46.6188 30.8612 46.5637C31.783 46.6976 32.7521 46.4061 33.4533 45.7049C34.0836 45.0746 34.4067 44.1922 34.3357 43.3019C34.3279 43.1916 34.3121 43.0813 34.2885 42.971C35.3363 43.034 36.3685 42.6164 37.0776 41.7734C37.6842 41.0564 37.9679 40.111 37.8497 39.1813C37.8418 39.1104 37.8339 39.0473 37.8182 38.9764C38.7715 39.0788 39.7406 38.7479 40.4497 38.0546C41.2297 37.2746 41.5212 36.1716 41.3085 35.1316C41.3479 35.1237 41.3873 35.1316 41.4267 35.1237L43.9636 34.7691C44.2867 35.0607 44.72 35.2261 45.1533 35.2261C45.3976 35.2261 45.6418 35.1788 45.8703 35.0685L50.4873 33.0279C51.3539 32.6497 51.7636 31.6413 51.4091 30.751ZM5.83817 31.6334C5.71999 31.6491 5.60968 31.6176 5.52302 31.5467L1.98544 28.7498C1.81211 28.6079 1.77271 28.3558 1.90665 28.1746L10.4788 16.5219C10.5654 16.4037 10.6836 16.3722 10.7545 16.3643H10.8097C10.8806 16.3643 10.9751 16.3801 11.0618 16.451L14.6309 19.2637C14.8042 19.3976 14.8357 19.6497 14.7097 19.8152L14.5994 19.9649C14.5915 19.9728 14.5836 19.9807 14.5757 19.9885L9.64362 26.6697C9.63574 26.6776 9.63575 26.6776 9.62787 26.6855L8.69029 27.9619L6.53938 30.877C6.5315 30.8849 6.5315 30.8928 6.5315 30.8928L6.10605 31.4758C6.02726 31.5861 5.91696 31.6255 5.83817 31.6334ZM9.9509 41.6946C9.38362 41.7655 8.81635 41.6079 8.35938 41.2534C7.42968 40.5285 7.25635 39.1655 7.98908 38.2201L10.526 34.9504C10.9515 34.3988 11.5897 34.1152 12.2357 34.1152C12.6927 34.1152 13.1576 34.2649 13.5515 34.5643C14.0794 34.9819 14.3867 35.6043 14.3867 36.274C14.3867 36.7546 14.2291 37.2116 13.9297 37.6055L11.3927 40.8752C11.0303 41.3322 10.5182 41.6237 9.9509 41.6946ZM12.6612 44.6176C12.1885 44.2316 11.9206 43.6722 11.9206 43.0734C11.9206 42.6401 12.0703 42.2146 12.3618 41.8443L14.8909 38.5825C15.2139 38.157 15.6867 37.897 16.2145 37.834C16.2933 37.8182 16.3721 37.8182 16.443 37.8182C16.8921 37.8182 17.3333 37.9758 17.743 38.3067C18.5939 38.9922 18.7279 40.2449 18.0424 41.0958L15.4503 44.3261C14.7648 45.1613 13.5121 45.2952 12.6612 44.6176ZM18.6254 47.5249C18.1685 47.5879 17.7194 47.4776 17.3963 47.2413L17.2624 47.131C16.8842 46.8552 16.6479 46.4455 16.5848 45.9807C16.5218 45.5079 16.6557 45.0431 16.9473 44.6728L18.8697 42.2934C19.2006 41.8758 19.7048 41.6552 20.2091 41.6552C20.5636 41.6552 20.926 41.7655 21.2254 41.994C21.6588 42.317 21.9109 42.8213 21.9109 43.3649C21.9109 43.7194 21.8085 44.0504 21.6115 44.334C21.5957 44.3498 21.5879 44.3734 21.5721 44.397C21.5642 44.4049 21.5642 44.4128 21.5564 44.4128L21.5248 44.4601L19.7363 46.8552C19.4842 47.2255 19.0824 47.4619 18.6254 47.5249ZM25.346 47.5801L24.44 48.9904C24.18 49.3922 23.7782 49.6679 23.3054 49.7704C22.8406 49.8649 22.3679 49.7782 21.9818 49.5261L21.8794 49.4552C21.4618 49.1873 21.186 48.7698 21.0994 48.2891C21.0127 47.8085 21.1151 47.3279 21.4067 46.9261C21.8794 46.3037 22.4151 45.6104 22.6279 45.3504C22.6673 45.311 22.7067 45.2637 22.746 45.2322C22.7539 45.2322 22.7539 45.2243 22.7539 45.2243C22.7618 45.2164 22.7776 45.2085 22.7854 45.2007C22.8248 45.1691 22.8563 45.1376 22.9194 45.0982C23.5103 44.7437 24.2509 44.7437 24.826 45.114C25.3303 45.437 25.6376 46.0043 25.6376 46.6188C25.6297 46.9655 25.5351 47.2964 25.346 47.5801ZM39.4885 37.0934C38.8424 37.7316 37.7945 37.8104 37.0697 37.2825L32.5394 33.934L30.7745 32.6261C30.4751 32.4055 30.0497 32.4685 29.8212 32.7679C29.6006 33.0673 29.6636 33.4928 29.963 33.7213L33.0515 36.0061L35.6673 37.9443C36.1242 38.2831 36.4157 38.7794 36.4867 39.3467C36.5576 39.914 36.3921 40.4655 36.0218 40.9067C35.3442 41.7104 34.1467 41.8601 33.2879 41.2534L27.8594 37.3691C27.5521 37.1485 27.1267 37.2194 26.9139 37.5267C26.6933 37.834 26.7642 38.2595 27.0715 38.4722L32.2636 42.1831C32.6654 42.4746 32.9176 42.9237 32.9648 43.4122C33.0042 43.9085 32.8309 44.3891 32.4763 44.7437C31.8854 45.3425 30.9321 45.3976 30.2624 44.8934L25.1412 40.9067C24.8418 40.6782 24.4163 40.7255 24.1879 41.0249C23.9594 41.3164 24.0067 41.7498 24.2982 41.9782L28.7733 45.4764C29.1988 45.8073 29.4667 46.3037 29.4982 46.8394C29.5376 47.3831 29.3406 47.8952 28.9545 48.2813C28.3242 48.9116 27.2606 48.9825 26.5515 48.4704C26.5515 48.4704 26.5121 48.4231 26.457 48.3679L26.4727 48.3443C26.8036 47.8401 26.977 47.2491 26.977 46.6267C26.977 45.5473 26.4412 44.5625 25.543 43.9794C24.8576 43.5382 24.0382 43.4043 23.2582 43.5461C23.2582 43.491 23.266 43.4358 23.266 43.3807C23.266 42.3958 22.817 41.4976 22.037 40.9146C21.3594 40.4104 20.5479 40.2213 19.7757 40.3316C19.9333 39.197 19.5157 38.0073 18.5309 37.2116C17.8297 36.6364 16.9394 36.3843 16.0412 36.4867C15.923 36.5025 15.8127 36.534 15.7024 36.5576C15.7103 36.4631 15.726 36.3764 15.726 36.2819C15.726 35.1867 15.2376 34.1782 14.3709 33.5007C13.0709 32.4922 11.2824 32.5473 10.0376 33.5243C10.0376 33.5164 10.0376 33.5164 10.0454 33.5085C10.0297 33.5243 10.0139 33.5401 9.99817 33.5479C9.91938 33.611 9.84059 33.6898 9.76968 33.7607C9.70665 33.8237 9.63574 33.8788 9.57271 33.9498V33.5716C9.57271 32.7522 9.18665 31.9879 8.54847 31.5231L8.02847 31.137L9.0212 29.7898L10.2739 28.0879L10.6679 27.5601C10.6915 27.5364 10.7073 27.5128 10.7309 27.4891L15.2297 21.3831L15.5212 21.6273C15.923 21.9819 16.4509 22.1788 16.9945 22.1788H20.2879L18.397 23.991C17.9557 24.4164 17.7115 24.9916 17.7115 25.6061C17.7115 26.4885 18.2 27.2685 18.9957 27.6388C20.9339 28.5685 23.2267 28.5213 25.1254 27.5207L25.9448 27.0952C26.717 26.6855 27.6624 26.7801 28.3479 27.3316L36.3448 33.737C36.8097 34.0994 37.2982 34.3988 37.8024 34.6194C37.9679 34.6904 38.1491 34.7613 38.3067 34.8164C38.4485 34.8716 38.5982 34.9188 38.7242 34.9504C38.8976 35.0055 39.0709 35.0449 39.2206 35.0685C39.4254 35.1079 39.6224 35.1394 39.7879 35.1473C39.8667 35.1552 39.9376 35.1552 40.0163 35.1631C39.9848 35.171 39.9612 35.1788 39.9297 35.1867C40.1503 35.8407 39.9927 36.5891 39.4885 37.0934ZM41.2376 33.7843C40.9776 33.8158 40.6939 33.8316 40.3709 33.8237C40.237 33.8237 40.1109 33.8158 39.9297 33.7922C39.7721 33.7843 39.6303 33.7528 39.457 33.7213C39.3467 33.7055 39.2363 33.6819 39.0945 33.6346C38.9842 33.611 38.8818 33.5716 38.7794 33.5322C38.6376 33.4849 38.4879 33.4219 38.3539 33.3667C37.96 33.1934 37.566 32.957 37.1957 32.6655L29.6085 26.5831L29.1988 26.2601C28.5527 25.7401 27.7648 25.4722 26.9691 25.4722C26.4018 25.4722 25.8345 25.6061 25.3224 25.8819L24.503 26.3073C22.9824 27.111 21.1467 27.1504 19.5945 26.4019C19.2242 26.2285 19.0903 25.874 19.0903 25.5982C19.0903 25.4328 19.1376 25.1807 19.3582 24.9679L23.2897 21.2019C24.0618 20.4613 25.157 20.1067 26.2206 20.2643L34.7139 21.517C35.4939 21.6273 36.2976 21.4776 36.9594 21.0994L37.9994 20.5164L39.6697 24.6449L43.2624 33.5007L41.2376 33.7843ZM49.9357 31.7988L45.3109 33.8394C45.1297 33.9182 44.9091 33.8552 44.7751 33.6267L39.8588 21.4855L39.2206 19.9255L38.8582 19.0273C38.7715 18.8225 38.866 18.5861 39.0788 18.4916L43.6957 16.4431C43.7982 16.3958 43.9163 16.3958 44.0188 16.4352C44.1212 16.4746 44.2 16.5534 44.2394 16.6637L50.1485 31.271C50.2273 31.4679 50.1327 31.7043 49.9357 31.7988Z" fill="#4A463B"/>
<path id="Vector_2" d="M26 17.0341C30.4672 17.0341 34.0994 13.4019 34.0994 8.93467C34.0994 4.46739 30.4672 0.827393 26 0.827393C21.5327 0.827393 17.8927 4.45951 17.8927 8.93467C17.9006 13.4019 21.5327 17.0341 26 17.0341ZM26 2.19042C29.7188 2.19042 32.7363 5.21588 32.7363 8.93467C32.7363 12.6535 29.7109 15.671 26 15.671C22.2812 15.671 19.2557 12.6456 19.2557 8.93467C19.2557 5.21588 22.2812 2.19042 26 2.19042Z" fill="#4A463B"/>
<path id="Vector_3" d="M24.3454 11.4008C24.4715 11.5268 24.6448 11.5978 24.826 11.5978C25.0073 11.5978 25.1806 11.5268 25.3067 11.4008L29.2697 7.43776C29.5376 7.16988 29.5376 6.74442 29.2697 6.47654C29.0018 6.20867 28.5764 6.20867 28.3085 6.47654L24.826 9.95897L23.6994 8.8323C23.4315 8.56442 23.006 8.56442 22.7382 8.8323C22.4703 9.10018 22.4703 9.52564 22.7382 9.79351L24.3454 11.4008Z" fill="#4A463B"/>
</g>
</g>
<defs>
<clipPath id="clip0_2338_120">
<rect width="52" height="52" fill="white"/>
</clipPath>
</defs>
</svg>
