<svg width="46" height="46" viewBox="0 0 46 46" fill="none" xmlns="http://www.w3.org/2000/svg">
<g id="helmet 1" clip-path="url(#clip0_2338_131)">
<g id="Group">
<path id="Vector" d="M37.7249 6.04952C36.7208 5.77918 35.6708 5.91781 34.7689 6.4398C32.9099 7.51586 32.2657 9.90687 33.3328 11.77C33.8503 12.6734 34.688 13.3198 35.6918 13.59C36.0273 13.6804 36.3679 13.725 36.7064 13.725C37.381 13.725 38.0474 13.5474 38.648 13.1998C40.507 12.1238 41.1512 9.73275 40.0841 7.86966C39.5665 6.9661 38.7286 6.31977 37.7249 6.04952ZM37.9728 12.0334C37.3833 12.3744 36.6977 12.4651 36.0421 12.2887C35.387 12.1124 34.8401 11.6903 34.5021 11.1002C33.8026 9.87893 34.2251 8.3116 35.4438 7.60615C35.8365 7.37893 36.2719 7.26286 36.7127 7.26286C36.9335 7.26286 37.1558 7.29197 37.3745 7.35081C38.0295 7.52718 38.5765 7.94926 38.9146 8.53936C39.6141 9.76069 39.1916 11.328 37.9728 12.0334Z" fill="#4A463B"/>
<path id="Vector_2" d="M45.4737 11.8751L44.2206 10.7954C44.3194 10.0524 44.3082 9.30736 44.1876 8.57154L45.3682 7.55846C45.8906 7.11023 46.0217 6.35159 45.6798 5.75458L44.5958 3.86238C44.2524 3.26295 43.5305 2.99494 42.8795 3.22521L41.3217 3.77586C40.733 3.32386 40.0856 2.96439 39.3889 2.70277L39.1078 1.17273C38.9831 0.493063 38.3919 0 37.7022 0C37.7021 0 37.7019 0 37.7018 0L35.5248 0.000269531C34.8366 0.000449219 34.2443 0.492434 34.1165 1.16995L33.8082 2.80295C33.1299 3.08739 32.4774 3.48064 31.9084 3.94836L30.449 3.43194C29.7996 3.2023 29.0774 3.46914 28.7319 4.06714L27.6386 5.95952C27.2937 6.55653 27.4217 7.31571 27.943 7.76475L29.1961 8.8444C29.0974 9.58732 29.1085 10.3324 29.2292 11.0683L28.0486 12.0814C27.5262 12.5296 27.3952 13.2882 27.737 13.8853L28.8208 15.7774C29.1642 16.3768 29.8858 16.645 30.5373 16.4146L32.0951 15.864C32.6838 16.316 33.3312 16.6754 34.0278 16.9371L34.3089 18.4673C34.4338 19.1468 35.0251 19.6398 35.7149 19.6398L37.892 19.6396C38.5801 19.6394 39.1723 19.1474 39.3003 18.4698L39.6084 16.8368C40.2865 16.5523 40.9394 16.1591 41.5083 15.6914L42.9679 16.2078C43.6173 16.4376 44.3395 16.1703 44.6848 15.5726L45.7781 13.6801C46.1229 13.0832 45.9948 12.3241 45.4737 11.8751ZM44.6112 13.0061L43.5179 14.8985C43.4972 14.9344 43.4549 14.9505 43.4174 14.9374L41.588 14.2901C41.3531 14.2069 41.0915 14.2603 40.9079 14.4286C40.2948 14.9907 39.5699 15.4291 38.7875 15.7108C38.5628 15.7916 38.3978 15.9853 38.3535 16.2199L37.9761 18.22C37.9681 18.2616 37.9327 18.2919 37.8918 18.2919L35.7149 18.2922C35.6755 18.2922 35.6417 18.2633 35.6344 18.2236L35.2823 16.307C35.2372 16.0617 35.0602 15.8613 34.8224 15.7862C34.0239 15.5342 33.2975 15.1318 32.6635 14.5904C32.4537 14.4303 32.2331 14.3894 32.0014 14.4676L30.088 15.1439C30.0506 15.1573 30.0102 15.1423 29.9903 15.1075L28.9065 13.2154C28.8855 13.1787 28.8937 13.1318 28.9262 13.104L30.403 11.8366C30.5913 11.6751 30.6755 11.4232 30.6224 11.1809C30.4432 10.364 30.4299 9.52973 30.5828 8.7011C30.6263 8.46553 30.5415 8.22457 30.3601 8.06833L28.8227 6.74376C28.7914 6.71681 28.7842 6.67054 28.8056 6.63361L29.8988 4.74123C29.9195 4.70548 29.9618 4.68922 29.9995 4.70224L31.8288 5.34957C32.0635 5.43258 32.3252 5.3793 32.509 5.21094C33.1218 4.64896 33.8468 4.21017 34.6291 3.92887C34.8538 3.8481 35.0189 3.65439 35.0632 3.41981L35.4408 1.41962C35.4486 1.37793 35.4841 1.34766 35.525 1.34766H37.7021C37.7414 1.34766 37.7751 1.37641 37.7823 1.41621L38.1345 3.33284C38.1796 3.57812 38.3566 3.77856 38.5944 3.85367C39.3931 4.10577 40.1195 4.508 40.7533 5.0494C40.9362 5.20546 41.1885 5.25236 41.4155 5.17221L43.3288 4.49587C43.3667 4.48257 43.4066 4.49767 43.4265 4.53235L44.5103 6.42446C44.5313 6.46111 44.5231 6.50801 44.4906 6.53586L43.0138 7.8032C42.8255 7.96474 42.7413 8.21666 42.7944 8.45897C42.9735 9.27565 42.9869 10.1099 42.8339 10.9387C42.7904 11.1743 42.8752 11.4153 43.0566 11.5715L44.594 12.8961C44.6252 12.9229 44.6324 12.9693 44.6112 13.0061Z" fill="#4A463B"/>
<path id="Vector_3" d="M9.77725 24.269C9.77689 23.0722 8.78367 22.0143 7.56871 22.0198L7.18939 22.0188L7.18661 18.6487C7.18562 17.6253 5.58945 17.8666 5.83913 18.8208L5.84174 22.0153C5.19657 22.0136 4.55131 22.0119 3.90614 22.0102L3.89653 10.4613C3.89644 10.3419 3.86463 10.2247 3.80444 10.1217L2.19983 7.37779L2.19893 3.75843L7.52631 3.78323L7.5272 7.35919L5.92358 10.1158C5.86357 10.2188 5.83203 10.3359 5.83212 10.4551L5.83581 14.8977C5.6103 15.8354 7.18445 16.0012 7.18355 15.0563L7.17996 10.6362L8.78349 7.87975C8.84342 7.77679 8.87495 7.65981 8.87495 7.54077L8.87315 0.673648C8.87315 0.326133 8.55223 0 8.19735 0L1.52232 0.0194961C1.15692 0.0204844 0.851095 0.326223 0.850466 0.691797L0.852263 7.56062C0.852263 7.68011 0.884068 7.79745 0.944353 7.90059L2.54905 10.6447L2.55849 22.0066L2.17863 22.0056C-0.444901 22.0132 -0.779209 26.0604 1.80074 26.5104L1.77882 39.9434C1.77298 44.058 7.95342 44.0267 7.95899 39.9593L7.98101 26.4867C9.00262 26.2867 9.77761 25.3677 9.77725 24.269ZM2.19857 2.41078L2.1983 1.36518L7.52559 1.34954L7.52586 2.43557L2.19857 2.41078ZM4.87708 41.7631C3.91692 41.7631 3.12513 40.8863 3.12648 39.9456L3.1484 26.5407L6.63326 26.5306L6.61134 39.9574C6.60999 40.9502 5.83194 41.7603 4.87708 41.7631ZM7.56584 25.1801L2.17935 25.1959C1.08963 25.1959 1.09906 23.3564 2.17881 23.3534L7.56889 23.3675C8.65016 23.3675 8.65789 25.1769 7.56584 25.1801Z" fill="#4A463B"/>
<path id="Vector_4" d="M43.1403 38.1935L43.1389 35.2142C43.1369 30.3228 40.928 25.7589 37.0788 22.6928C36.6944 22.3865 36.0458 22.3554 35.6295 22.6236C34.159 21.6253 32.5479 20.9009 30.8256 20.4653C30.8935 20.1038 30.8203 19.6063 30.4622 19.4202C28.3186 18.3065 25.7594 18.3074 23.6168 19.4231C23.2588 19.6094 23.1861 20.1075 23.2543 20.4691C22.4641 20.6696 21.6972 20.9308 20.9565 21.2515L21.0225 13.3178C23.768 12.6369 25.218 10.863 25.2258 8.15949C25.2345 5.165 23.4569 1.71688 21.0911 0.139048C20.5191 -0.0924795 20.1699 0.0936767 20.0434 0.697696L20.0271 6.2982C20.0025 6.59944 19.8424 6.76529 19.5468 6.79584L16.7049 6.78165C16.4393 6.7803 16.224 6.55371 16.2248 6.27636L16.2411 0.675774C16.1186 0.0721142 15.7711 -0.116468 15.1983 0.110028C12.8224 1.66486 11.0241 5.09609 11.0154 8.0913C11.0076 10.7924 12.4456 12.5795 15.1837 13.288L15.1092 24.4767C12.4425 27.4072 10.9518 31.207 10.9535 35.2277L10.9547 38.1995C8.2977 39.0107 8.81152 43.0783 11.6521 43.0783C13.6396 43.0783 15.4982 43.6692 17.2332 44.6008C18.9754 45.5163 20.937 46.0001 22.9063 46.0001H22.9114L31.1902 45.9966C33.1613 45.9957 35.1244 45.5102 36.8672 44.5927C38.6006 43.6503 40.4581 43.0661 42.446 43.0653C45.2479 43.0642 45.8415 38.9825 43.1403 38.1935ZM35.0632 23.8697L35.0666 31.772C35.0667 32.1442 35.3683 32.4456 35.7404 32.4456H35.7407C36.1129 32.4454 36.4144 32.1436 36.4142 31.7715L36.4109 23.8857C39.8313 26.6928 41.7895 30.8092 41.7914 35.2149L41.7927 38.0882H36.417L36.4157 35.3532C36.4156 34.9811 36.114 34.6797 35.7419 34.6797C35.7418 34.6797 35.7417 34.6797 35.7416 34.6797C35.3694 34.6798 35.0679 34.9816 35.0681 35.3538L35.0692 38.0882H30.8331L30.8263 21.8598C32.3452 22.2836 33.7659 22.9577 35.0632 23.8697ZM29.478 20.4426L29.4855 38.0881H24.6096L24.6021 20.4445C26.1541 19.7633 27.9254 19.7626 29.478 20.4426ZM23.2618 38.0882H19.0258L19.0197 23.8764C20.3024 22.9731 21.7446 22.2864 23.255 21.8634L23.2618 38.0882ZM12.3631 8.09525C12.3691 6.02139 13.4174 3.63172 14.8893 2.1139L14.8772 6.2725C14.8743 7.29142 15.6912 8.12436 16.6984 8.12939L19.5402 8.14359C20.5226 8.14359 21.372 7.28216 21.3748 6.30215L21.3869 2.14849C22.85 3.6815 23.8843 6.08167 23.8782 8.15572C23.8718 10.3634 22.6786 11.6571 20.2305 12.1107C19.9131 12.1695 19.6821 12.4449 19.6794 12.7677L19.6032 21.919C19.2106 22.1379 18.8271 22.3759 18.4523 22.6309C18.036 22.3631 17.3872 22.3945 17.0032 22.7012C16.8199 22.8475 16.6416 22.9982 16.4658 23.1512L16.5349 12.7554C16.537 12.4315 16.3084 12.1517 15.9904 12.0896C13.5431 11.6109 12.3567 10.3044 12.3631 8.09525ZM17.672 23.8936L17.678 38.0881H12.3023L12.301 35.2272C12.2993 30.8216 14.2539 26.7035 17.672 23.8936ZM43.2775 41.3649C43.0579 41.5922 42.7623 41.7175 42.4453 41.7177C40.2419 41.7186 38.1657 42.3656 36.2393 43.4002C34.6892 44.2164 32.9431 44.6483 31.1896 44.6489L22.9109 44.6524C22.9092 44.6524 22.9079 44.6524 22.9063 44.6524C21.1546 44.6523 19.4096 44.2221 17.86 43.4078C15.9935 42.4096 13.8072 41.6108 11.6521 41.7306C10.1423 41.7306 10.1717 39.4363 11.6992 39.4357H18.3521H23.9358H30.1594H35.7432H42.3963C43.3463 39.4924 44.0193 40.5971 43.2775 41.3649Z" fill="#4A463B"/>
</g>
</g>
<defs>
<clipPath id="clip0_2338_131">
<rect width="46" height="46" fill="white"/>
</clipPath>
</defs>
</svg>
