<svg width="42" height="42" viewBox="0 0 42 42" fill="none" xmlns="http://www.w3.org/2000/svg">
<g id="Layer">
<g id="Group">
<path id="Vector" d="M36.1088 36.0366L36.109 36.0364C36.9479 35.1976 36.9479 33.8327 36.109 32.9938C35.7028 32.5876 35.1623 32.3635 34.5875 32.3635C34.013 32.3635 33.4726 32.5876 33.0661 32.9942C32.2275 33.8327 32.2275 35.1977 33.0663 36.0364C33.9053 36.8751 35.2701 36.8751 36.1088 36.0366ZM33.7354 35.3673C33.5079 35.1398 33.3825 34.8371 33.3825 34.5151C33.3825 34.1932 33.5078 33.8904 33.7354 33.6628C33.9631 33.4353 34.2659 33.3099 34.5878 33.3099C34.9097 33.3099 35.2122 33.4353 35.4399 33.6628C35.9098 34.1328 35.9098 34.8973 35.4397 35.3673C34.9698 35.8373 34.2054 35.8371 33.7354 35.3673Z" fill="#4A463B"/>
<path id="Vector_2" d="M39.8624 9.23381C39.8629 9.2332 39.8635 9.2328 39.864 9.23228C39.865 9.23127 39.866 9.23014 39.867 9.22912L39.9967 9.0994L39.9934 9.09613C41.9219 7.02685 41.8795 3.77498 39.8637 1.75925C38.8657 0.761134 37.5387 0.211426 36.1272 0.211426C34.7787 0.211426 33.5079 0.714264 32.5268 1.62952L32.5236 1.62637L32.3937 1.75614C32.3927 1.75722 32.3916 1.75814 32.3906 1.75922C32.3901 1.75972 32.3897 1.76028 32.3892 1.76085L1.34509 32.8048L1.35718 32.8169C1.18365 32.9288 1.05793 33.1126 1.02775 33.3331L0.00680209 40.7903C-0.0242792 41.0176 0.0527525 41.2462 0.214898 41.4085C0.353339 41.5468 0.54025 41.6231 0.733407 41.6231C0.766444 41.6231 0.799693 41.6208 0.832942 41.6163L8.28989 40.5951C8.51057 40.5651 8.69432 40.4392 8.80623 40.2657L8.81829 40.2778L39.8624 9.23381ZM36.1272 1.67811C37.1469 1.67811 38.1055 2.07522 38.8265 2.79629C40.1377 4.10736 40.294 6.14289 39.2954 7.62656L33.9958 2.32722C34.6205 1.90504 35.3565 1.67811 36.1272 1.67811ZM32.5236 3.70052L37.9225 9.09938L8.81829 38.2036L6.78717 36.1726L30.1493 12.8107L28.7508 11.4124L5.38891 34.7744L3.41929 32.8048L32.5236 3.70052ZM1.59093 40.0322L2.43171 33.8913L7.73167 39.1912L1.59093 40.0322Z" fill="#4A463B"/>
<path id="Vector_3" d="M11.728 18.7011L13.0662 17.3629L2.35748 6.65414L6.72705 2.28445L8.79892 4.35651L7.2957 5.85951L8.48245 7.04618L9.98566 5.54327L11.1936 6.75113L9.6904 8.25425L10.8772 9.44081L12.3805 7.9379L13.5883 9.14597L11.3645 11.3693L12.5515 12.5561L14.7751 10.3325L16.2479 11.8052L14.7447 13.3087L15.9315 14.4952L17.4347 12.992L17.4357 12.9931L18.7739 11.6549L7.39604 0.277222C7.0265 -0.0924074 6.4275 -0.0924074 6.05796 0.277222L0.350223 5.98503C-0.0194305 6.35459 -0.0194305 6.95369 0.350223 7.32323L11.728 18.7011Z" fill="#4A463B"/>
<path id="Vector_4" d="M41.6998 34.5791C41.6827 34.5619 41.6649 34.5455 41.647 34.5299L29.7404 22.6235L26.1784 26.1855L27.3627 27.3698L29.5865 25.1461L39.6906 35.25L35.3208 39.6196L24.0325 28.3313L22.6943 29.6697L34.6517 41.6269C35.0212 41.9966 35.6202 41.9966 35.9899 41.6269L41.6979 35.9193C41.6984 35.9185 41.6991 35.9181 41.6998 35.9173C42.0694 35.5479 42.0694 34.9486 41.6998 34.5791Z" fill="#4A463B"/>
</g>
</g>
</svg>
