<svg width="26" height="27" viewBox="0 0 26 27" fill="none" xmlns="http://www.w3.org/2000/svg">
<g clip-path="url(#clip0_2375_2152)">
<path d="M5.76215 16.2122L4.85713 19.5908L1.54929 19.6607C0.560727 17.8272 0 15.7294 0 13.5001C0 11.3443 0.524266 9.31147 1.45356 7.52148H1.45427L4.39918 8.06139L5.68923 10.9886C5.41922 11.7758 5.27206 12.6208 5.27206 13.5001C5.27216 14.4543 5.44502 15.3687 5.76215 16.2122Z" fill="#FBBB00"/>
<path d="M25.7729 11.0715C25.9222 11.8579 26.0001 12.6701 26.0001 13.5001C26.0001 14.4308 25.9022 15.3387 25.7158 16.2144C25.083 19.1944 23.4294 21.7965 21.1387 23.638L21.138 23.6373L17.4287 23.448L16.9037 20.1708C18.4237 19.2794 19.6116 17.8844 20.2373 16.2144H13.2859V11.0715H20.3387H25.7729Z" fill="#518EF8"/>
<path d="M21.1379 23.6371L21.1386 23.6378C18.9108 25.4285 16.0807 26.5 13 26.5C8.04932 26.5 3.74505 23.7329 1.54932 19.6607L5.76218 16.2122C6.86002 19.1421 9.68645 21.2279 13 21.2279C14.4243 21.2279 15.7586 20.8428 16.9036 20.1707L21.1379 23.6371Z" fill="#28B446"/>
<path d="M21.2979 3.49284L17.0865 6.94069C15.9015 6.19999 14.5007 5.77211 13.0001 5.77211C9.61147 5.77211 6.73217 7.95352 5.68933 10.9886L1.45432 7.52142H1.45361C3.6172 3.35 7.97575 0.5 13.0001 0.5C16.1543 0.5 19.0465 1.62359 21.2979 3.49284Z" fill="#F14336"/>
</g>
<defs>
<clipPath id="clip0_2375_2152">
<rect width="26" height="26" fill="white" transform="translate(0 0.5)"/>
</clipPath>
</defs>
</svg>
