<svg width="24" height="33" viewBox="0 0 24 33" fill="none" xmlns="http://www.w3.org/2000/svg">
<path fill-rule="evenodd" clip-rule="evenodd" d="M0.611303 15.9057C0.0998501 16.7387 -0.115607 19.3616 0.0605826 21.1026C0.123004 21.6776 0.225694 22.1566 0.373693 22.4426C0.578073 22.8376 0.922388 23.0736 1.31504 23.0866C1.56674 23.1006 1.7228 23.0566 6.45072 21.5116C6.45072 21.5116 8.55191 20.8316 8.56097 20.8266C9.0845 20.6926 9.43686 20.2027 9.4721 19.5767C9.50533 18.9367 9.17914 18.3696 8.64251 18.1657C8.64251 18.1657 7.16253 17.5517 7.1585 17.5517C2.07821 15.4227 1.85066 15.3387 1.59393 15.3357C1.20228 15.3207 0.851928 15.5207 0.611303 15.9057ZM11.9768 31.7692C12.0594 31.5282 12.0684 31.3612 12.0825 26.3143C12.0825 26.3143 12.0946 24.0853 12.0956 24.0613C12.1288 23.5163 11.7825 23.0193 11.2106 22.7943C10.6237 22.5653 9.99243 22.7073 9.63804 23.1573C9.63804 23.1573 8.60205 24.4073 8.59802 24.4073C5.03698 28.6543 4.89099 28.8503 4.8034 29.1023C4.75105 29.2523 4.72889 29.4082 4.74802 29.5652C4.76916 29.7892 4.86784 30.0132 5.03497 30.2192C5.85953 31.2172 9.81825 32.6972 11.0818 32.4782C11.5218 32.3962 11.8399 32.1452 11.9768 31.7692ZM20.0044 30.013C21.1975 29.53 23.8021 26.1651 23.9853 24.8701C24.0477 24.4201 23.9098 24.0311 23.6037 23.7841C23.4044 23.6311 23.2493 23.5711 18.5254 21.9961C18.5254 21.9961 16.4534 21.3001 16.4263 21.2871C15.9259 21.0901 15.352 21.2711 14.9674 21.7561C14.5687 22.2511 14.5063 22.9021 14.8255 23.3971L15.6601 24.7761C18.466 29.405 18.6795 29.7321 18.8818 29.892C19.1939 30.142 19.5906 30.183 20.0044 30.013ZM17.5649 18.0986C22.9342 16.7776 23.1416 16.7066 23.354 16.5656C23.6782 16.3446 23.8413 15.9716 23.8141 15.5176C23.8141 15.5026 23.8161 15.4886 23.8141 15.4716C23.6762 14.1336 21.3646 10.6476 20.2269 10.0826C19.8242 9.88564 19.4195 9.89963 19.0872 10.1266C18.8798 10.2646 18.7258 10.4717 15.8514 14.4656C15.8514 14.4656 14.5516 16.2646 14.5365 16.2816C14.1932 16.7036 14.1902 17.3116 14.5234 17.8315C14.8698 18.3695 15.4557 18.6315 15.9923 18.4806C15.9923 18.4806 15.9702 18.5186 15.9641 18.5266C16.2289 18.4236 16.7031 18.3066 17.5649 18.0986ZM12.1724 13.5938C12.0808 11.4328 11.4415 1.80495 11.366 1.35795C11.2553 0.954956 10.9462 0.665944 10.4981 0.550945C9.1289 0.204949 3.89054 1.69791 2.91898 2.7159C2.60788 3.0459 2.49108 3.45391 2.58471 3.81291C2.73674 4.1329 9.22957 14.5088 9.22957 14.5088C10.1901 16.0898 10.9723 15.8448 11.2281 15.7638C11.4828 15.6828 12.261 15.4378 12.1724 13.5938Z" fill="#F21B1B"/>
</svg>
