<svg width="29" height="26" viewBox="0 0 29 26" fill="none" xmlns="http://www.w3.org/2000/svg">
<path d="M7.738 25.451C5.61467 25.451 3.916 24.6927 2.642 23.176C1.42867 21.5987 0.822 19.5663 0.822 17.079C0.822 13.6817 1.732 10.618 3.552 7.888C5.43267 5.09733 8.284 2.76166 12.106 0.880999L13.107 2.337C11.287 3.429 9.61867 4.976 8.102 6.978C6.646 8.91933 5.918 10.891 5.918 12.893C5.918 13.439 6.06967 13.894 6.373 14.258C6.67633 14.5613 7.13133 14.713 7.738 14.713C9.25467 14.713 10.5287 15.259 11.56 16.351C12.652 17.3823 13.198 18.6563 13.198 20.173C13.198 21.6897 12.652 22.9637 11.56 23.995C10.5287 24.9657 9.25467 25.451 7.738 25.451ZM23.481 25.451C21.3577 25.451 19.659 24.6927 18.385 23.176C17.1717 21.5987 16.565 19.5663 16.565 17.079C16.565 13.6817 17.475 10.618 19.295 7.888C21.1757 5.09733 24.027 2.76166 27.849 0.880999L28.85 2.337C27.03 3.429 25.3617 4.976 23.845 6.978C22.389 8.91933 21.661 10.891 21.661 12.893C21.661 13.439 21.8127 13.894 22.116 14.258C22.4193 14.5613 22.8743 14.713 23.481 14.713C24.9977 14.713 26.2717 15.259 27.303 16.351C28.395 17.3823 28.941 18.6563 28.941 20.173C28.941 21.6897 28.395 22.9637 27.303 23.995C26.2717 24.9657 24.9977 25.451 23.481 25.451Z" fill="#CFCFCF"/>
</svg>
