<svg width="64" height="64" viewBox="0 0 64 64" fill="none" xmlns="http://www.w3.org/2000/svg">
<circle cx="32" cy="32" r="31.5" fill="#171717" stroke="#444444"/>
<path d="M42.4686 25.2564L41.3916 35.9266C41.3581 36.2087 41.2152 36.4664 40.9937 36.6442C40.7721 36.8219 40.4896 36.9055 40.207 36.877C39.9244 36.8485 39.6642 36.7101 39.4827 36.4916C39.3011 36.2732 39.2126 35.9922 39.2362 35.7091L40.0506 27.6409L25.2943 39.6913C25.0718 39.8731 24.7862 39.9589 24.5003 39.9301C24.2144 39.9012 23.9518 39.76 23.77 39.5375C23.5883 39.3149 23.5024 39.0293 23.5313 38.7434C23.5601 38.4576 23.7013 38.1949 23.9239 38.0131L38.6801 25.9627L30.6119 25.1483C30.4685 25.1364 30.329 25.096 30.2014 25.0295C30.0738 24.963 29.9608 24.8718 29.8688 24.7612C29.7769 24.6506 29.7079 24.5228 29.6658 24.3852C29.6238 24.2476 29.6096 24.1031 29.6241 23.9599C29.6385 23.8168 29.6813 23.678 29.75 23.5516C29.8187 23.4252 29.9118 23.3137 30.024 23.2237C30.1362 23.1337 30.2652 23.0669 30.4035 23.0273C30.5418 22.9877 30.6866 22.976 30.8294 22.9929L41.4997 24.0699C41.7855 24.0988 42.0481 24.2401 42.2298 24.4626C42.4115 24.685 42.4974 24.9706 42.4686 25.2564Z" fill="white"/>
</svg>
