<svg width="82" height="82" viewBox="0 0 82 82" fill="none" xmlns="http://www.w3.org/2000/svg">
<g id="witness 1">
<path id="Vector" d="M47.1328 52.014C47.1328 48.6323 44.3817 45.8808 41 45.8808C37.6183 45.8808 34.8672 48.6323 34.8672 52.014C34.8672 55.3957 37.6183 58.1463 41 58.1463C44.3817 58.1463 47.1328 55.3957 47.1328 52.014ZM36.5072 52.014C36.5072 49.5363 38.5228 47.5208 41 47.5208C43.4772 47.5208 45.4928 49.5363 45.4928 52.014C45.4928 54.4908 43.4772 56.5063 41 56.5063C38.5228 56.5063 36.5072 54.4908 36.5072 52.014Z" fill="#646161"/>
<path id="Vector_2" d="M31.0751 70.0443V72.98C31.0751 73.4332 31.4423 73.8 31.8951 73.8H50.1049C50.5577 73.8 50.9249 73.4332 50.9249 72.98V70.0443C50.9249 64.5718 46.4725 60.1194 41 60.1194C35.5274 60.1194 31.0751 64.5718 31.0751 70.0443ZM41 61.7594C45.5684 61.7594 49.2849 65.4759 49.2849 70.0443V72.16H32.7151V70.0443C32.7151 65.4759 36.4315 61.7594 41 61.7594Z" fill="#646161"/>
<path id="Vector_3" d="M11.9921 52.014C11.9921 55.3957 14.7432 58.1463 18.1249 58.1463C21.5066 58.1463 24.2577 55.3957 24.2577 52.014C24.2577 48.6323 21.5066 45.8808 18.1249 45.8808C14.7432 45.8808 11.9921 48.6323 11.9921 52.014ZM22.6177 52.014C22.6177 54.4908 20.6021 56.5063 18.1249 56.5063C15.6477 56.5063 13.6321 54.4908 13.6321 52.014C13.6321 49.5363 15.6477 47.5208 18.1249 47.5208C20.6021 47.5208 22.6177 49.5363 22.6177 52.014Z" fill="#646161"/>
<path id="Vector_4" d="M8.20001 72.98C8.20001 73.4332 8.56717 73.8 9.02001 73.8H27.2294C27.6822 73.8 28.0494 73.4332 28.0494 72.98V70.0443C28.0494 64.5718 23.5974 60.1194 18.1249 60.1194C12.6524 60.1194 8.20001 64.5718 8.20001 70.0443V72.98ZM9.84001 70.0443C9.84001 65.4759 13.5564 61.7594 18.1249 61.7594C22.693 61.7594 26.4094 65.4759 26.4094 70.0443V72.16H9.84001V70.0443Z" fill="#646161"/>
<path id="Vector_5" d="M70.0079 52.014C70.0079 48.6323 67.2568 45.8808 63.8751 45.8808C60.4934 45.8808 57.7423 48.6323 57.7423 52.014C57.7423 55.3957 60.4934 58.1463 63.8751 58.1463C67.2568 58.1463 70.0079 55.3957 70.0079 52.014ZM59.3823 52.014C59.3823 49.5363 61.3979 47.5208 63.8751 47.5208C66.3523 47.5208 68.3679 49.5363 68.3679 52.014C68.3679 54.4908 66.3523 56.5063 63.8751 56.5063C61.3979 56.5063 59.3823 54.4908 59.3823 52.014Z" fill="#646161"/>
<path id="Vector_6" d="M53.9506 70.0443V72.98C53.9506 73.4332 54.3178 73.8 54.7706 73.8H72.98C73.4328 73.8 73.8 73.4332 73.8 72.98V70.0443C73.8 64.5718 69.3476 60.1194 63.8751 60.1194C58.4026 60.1194 53.9506 64.5718 53.9506 70.0443ZM63.8751 61.7594C68.4436 61.7594 72.16 65.4759 72.16 70.0443V72.16H55.5906V70.0443C55.5906 65.4759 59.307 61.7594 63.8751 61.7594Z" fill="#646161"/>
<path id="Vector_7" d="M8.20001 27.2738C8.20001 29.9869 10.407 32.1938 13.124 32.1938L20.6774 32.1586L20.6934 37.7256C20.6942 38.0411 20.876 38.3278 21.1607 38.4631C21.2732 38.5168 21.3937 38.5432 21.5134 38.5432C21.6972 38.5432 21.8798 38.4816 22.0283 38.3614L29.6738 32.1938H32.8C35.5131 32.1938 37.72 29.9869 37.72 27.2738V13.12C37.72 10.407 35.5131 8.20001 32.8 8.20001H13.12C10.407 8.20001 8.20001 10.407 8.20001 13.12V27.2738ZM9.84001 13.12C9.84001 11.311 11.3114 9.84001 13.12 9.84001H32.8C34.6086 9.84001 36.08 11.311 36.08 13.12V27.2738C36.08 29.0828 34.6086 30.5538 32.8 30.5538H29.3843C29.1969 30.5538 29.0151 30.6179 28.8694 30.7356L22.3286 36.0119L22.315 31.3322C22.3142 31.1144 22.2273 30.9062 22.0727 30.7524C21.919 30.6003 21.7112 30.5146 21.495 30.5146H21.491L13.12 30.5538C11.3114 30.5538 9.84001 29.0828 9.84001 27.2738V13.12Z" fill="#646161"/>
<path id="Vector_8" d="M73.8 13.12C73.8 10.407 71.593 8.20001 68.88 8.20001H49.2C46.487 8.20001 44.28 10.407 44.28 13.12V27.2738C44.28 29.9869 46.487 32.1938 49.2 32.1938H52.3262L59.9717 38.3614C60.1203 38.4816 60.3028 38.5432 60.4866 38.5432C60.6063 38.5432 60.7268 38.5168 60.8394 38.4631C61.124 38.3278 61.3058 38.0411 61.3066 37.7256L61.3226 32.1586L68.88 32.1938C71.593 32.1938 73.8 29.9869 73.8 27.2738V13.12ZM72.16 27.2738C72.16 29.0828 70.6886 30.5538 68.884 30.5538L60.509 30.5146H60.505C60.2888 30.5146 60.081 30.6003 59.9273 30.7524C59.7727 30.9062 59.6858 31.1144 59.685 31.3322L59.6714 36.0119L53.1306 30.7356C52.9849 30.6179 52.8031 30.5538 52.6157 30.5538H49.2C47.3914 30.5538 45.92 29.0828 45.92 27.2738V13.12C45.92 11.311 47.3914 9.84001 49.2 9.84001H68.88C70.6886 9.84001 72.16 11.311 72.16 13.12V27.2738Z" fill="#646161"/>
</g>
</svg>
