<svg width="64" height="64" viewBox="0 0 64 64" fill="none" xmlns="http://www.w3.org/2000/svg">
<g id="communication 1" clip-path="url(#clip0_2310_253)">
<path id="Vector" d="M41.9342 41.1084C47.1381 35.7501 47.0917 27.395 41.8268 22.0892C36.5039 16.7261 27.7673 16.6492 22.3486 21.9165C19.7211 24.4702 18.2562 27.8857 18.2233 31.532C18.1909 35.1782 19.5935 38.6181 22.1741 41.2189C25.7422 44.8157 30.9241 46.1578 35.7971 44.7742C36.3916 45.238 37.6471 45.9991 39.4727 45.9991C40.4706 45.9991 41.6382 45.7721 42.9614 45.144C43.2446 45.0104 43.4216 44.7229 43.418 44.4104C43.4131 44.0979 43.2263 43.8159 42.9407 43.6889C42.5885 43.5321 41.5454 42.9333 41.3849 42.2565C41.3617 42.1557 41.2909 41.8524 41.6846 41.3592C41.7688 41.2775 41.8518 41.1938 41.9342 41.1084ZM39.8297 42.6288C39.9854 43.2818 40.4016 43.8122 40.8508 44.2163C38.1311 44.8901 36.6382 43.4021 36.5704 43.3325C36.4172 43.1695 36.2054 43.081 35.9882 43.081C35.907 43.081 35.8252 43.0939 35.7452 43.1189C31.3251 44.5264 26.5601 43.3679 23.3099 40.0921C21.0327 37.7966 19.7943 34.7619 19.8236 31.546C19.8523 28.3307 21.145 25.318 23.4644 23.0633C28.2562 18.4057 35.9839 18.4729 40.6909 23.2153C45.3351 27.8967 45.3772 35.2673 40.7867 39.9939C40.7056 40.0775 40.6226 40.1611 40.5383 40.2423C40.5164 40.263 40.4962 40.285 40.4773 40.3076C39.707 41.2396 39.6997 42.0843 39.8297 42.6288Z" fill="#616161"/>
<path id="Vector_2" d="M37.4451 28.2477H26.5546C26.1127 28.2477 25.7544 28.6053 25.7544 29.0479C25.7544 29.4897 26.1127 29.8474 26.5546 29.8474H37.4451C37.8876 29.8474 38.2452 29.4897 38.2452 29.0479C38.2452 28.6053 37.8876 28.2477 37.4451 28.2477Z" fill="#616161"/>
<path id="Vector_3" d="M37.4451 34.0344H26.5546C26.1127 34.0344 25.7544 34.3921 25.7544 34.8346C25.7544 35.2765 26.1127 35.6342 26.5546 35.6342H37.4451C37.8876 35.6342 38.2452 35.2765 38.2452 34.8346C38.2452 34.3921 37.8876 34.0344 37.4451 34.0344Z" fill="#616161"/>
<path id="Vector_4" d="M62.9083 11.5125C62.9083 5.7666 58.2336 1.09131 52.4878 1.09131C46.7413 1.09131 42.0667 5.7666 42.0667 11.5125C42.0667 17.2583 46.7413 21.9336 52.4878 21.9336C58.2336 21.9336 62.9083 17.2583 62.9083 11.5125ZM47.226 18.576C47.323 16.3342 48.7872 14.4128 50.9515 13.7561C51.2592 13.6627 51.4819 13.3929 51.5149 13.0719C51.5479 12.7509 51.3843 12.442 51.1011 12.2882C50.083 11.7346 49.4507 10.6714 49.4507 9.51355C49.4507 7.77283 50.8673 6.3562 52.608 6.3562C54.3481 6.3562 55.7648 7.77283 55.7648 9.51355C55.7648 10.7056 55.1025 11.7834 54.0356 12.326C53.7482 12.4725 53.5773 12.7771 53.6017 13.0994C53.6255 13.421 53.8416 13.6969 54.1479 13.7982C56.2384 14.491 57.6532 16.394 57.7496 18.5754C56.2787 19.6747 54.4604 20.3339 52.4878 20.3339C50.5145 20.3339 48.6969 19.6747 47.226 18.576ZM43.6664 11.5125C43.6664 6.64856 47.6233 2.69165 52.4878 2.69165C57.3517 2.69165 61.3086 6.64856 61.3086 11.5125C61.3086 13.7018 60.5023 15.7025 59.1772 17.2461C58.7506 15.4138 57.5995 13.83 55.9717 12.8766C56.853 12.0001 57.3651 10.8008 57.3651 9.51355C57.3651 6.89087 55.2307 4.75647 52.608 4.75647C49.9854 4.75647 47.851 6.89087 47.851 9.51355C47.851 10.7501 48.3295 11.9147 49.1541 12.785C47.442 13.725 46.2341 15.3461 45.7971 17.2455C44.4727 15.7019 43.6664 13.7012 43.6664 11.5125Z" fill="#616161"/>
<path id="Vector_5" d="M11.5125 1.09131C5.7666 1.09131 1.09131 5.7666 1.09131 11.5125C1.09131 17.2583 5.7666 21.9336 11.5125 21.9336C17.2583 21.9336 21.9336 17.2583 21.9336 11.5125C21.9336 5.7666 17.2583 1.09131 11.5125 1.09131ZM6.25061 18.576C6.34827 16.3342 7.8125 14.4128 9.97681 13.7561C10.2844 13.6627 10.5072 13.3929 10.5396 13.0719C10.5725 12.7509 10.4095 12.442 10.1257 12.2882C9.10767 11.7346 8.47595 10.6714 8.47595 9.51355C8.47595 7.77283 9.89197 6.3562 11.6327 6.3562C13.3734 6.3562 14.79 7.77283 14.79 9.51355C14.79 10.7056 14.1272 11.7828 13.0603 12.326C12.7728 12.4725 12.6013 12.7771 12.6257 13.0994C12.6501 13.421 12.8656 13.6969 13.172 13.7982C15.2625 14.491 16.6779 16.394 16.7743 18.5754C15.3033 19.6747 13.4857 20.3339 11.5125 20.3339C9.53918 20.3339 7.72156 19.6747 6.25061 18.576ZM18.2025 17.2461C17.7753 15.4138 16.6235 13.83 14.9963 12.8766C15.8771 12.0001 16.3898 10.8008 16.3898 9.51355C16.3898 6.89087 14.2554 4.75647 11.6327 4.75647C9.01001 4.75647 6.87561 6.89087 6.87561 9.51355C6.87561 10.7501 7.35474 11.9147 8.17871 12.785C6.46667 13.725 5.2594 15.3461 4.82178 17.2455C3.49731 15.7019 2.69165 13.7012 2.69165 11.5125C2.69165 6.64856 6.64856 2.69165 11.5125 2.69165C16.3763 2.69165 20.3339 6.64856 20.3339 11.5125C20.3339 13.7018 19.5276 15.7025 18.2025 17.2461Z" fill="#616161"/>
<path id="Vector_6" d="M52.4878 42.1509C46.7413 42.1509 42.0667 46.8256 42.0667 52.572C42.0667 58.3179 46.7413 62.9932 52.4878 62.9932C58.2336 62.9932 62.9083 58.3179 62.9083 52.572C62.9083 46.8256 58.2336 42.1509 52.4878 42.1509ZM47.226 59.635C47.323 57.3938 48.7872 55.4724 50.9515 54.8157C51.2592 54.7217 51.4819 54.4525 51.5149 54.1315C51.5479 53.8104 51.3843 53.5016 51.1011 53.3478C50.083 52.7936 49.4507 51.7303 49.4507 50.5725C49.4507 48.8318 50.8673 47.4158 52.608 47.4158C54.3481 47.4158 55.7648 48.8318 55.7648 50.5725C55.7648 51.7651 55.1025 52.843 54.0356 53.385C53.7482 53.5321 53.5773 53.8367 53.6017 54.1583C53.6255 54.4806 53.8416 54.7565 54.1479 54.8578C56.2384 55.5499 57.6532 57.4536 57.7496 59.635C56.2787 60.7336 54.4604 61.3928 52.4878 61.3928C50.5145 61.3928 48.6969 60.7336 47.226 59.635ZM59.1772 58.3057C58.7506 56.4734 57.5995 54.8895 55.9717 53.9362C56.853 53.0591 57.3651 51.8604 57.3651 50.5725C57.3651 47.9498 55.2307 45.8154 52.608 45.8154C49.9854 45.8154 47.851 47.9498 47.851 50.5725C47.851 51.8091 48.3295 52.9742 49.1541 53.8446C47.442 54.7845 46.2341 56.4056 45.7971 58.3051C44.4727 56.7615 43.6664 54.7607 43.6664 52.572C43.6664 47.7075 47.6233 43.7506 52.4878 43.7506C57.3517 43.7506 61.3086 47.7075 61.3086 52.572C61.3086 54.7607 60.5023 56.7621 59.1772 58.3057Z" fill="#616161"/>
<path id="Vector_7" d="M11.5125 42.1509C5.7666 42.1509 1.09131 46.8256 1.09131 52.572C1.09131 58.3179 5.7666 62.9932 11.5125 62.9932C17.2583 62.9932 21.9336 58.3179 21.9336 52.572C21.9336 46.8256 17.2583 42.1509 11.5125 42.1509ZM6.25061 59.635C6.34827 57.3938 7.8125 55.4724 9.97681 54.8157C10.2844 54.7217 10.5072 54.4525 10.5396 54.1315C10.5725 53.8104 10.4095 53.5016 10.1257 53.3478C9.10767 52.7936 8.47595 51.7303 8.47595 50.5725C8.47595 48.8318 9.89197 47.4158 11.6327 47.4158C13.3734 47.4158 14.79 48.8318 14.79 50.5725C14.79 51.7651 14.1272 52.8424 13.0603 53.385C12.7728 53.5321 12.6013 53.8367 12.6257 54.1583C12.6501 54.4806 12.8656 54.7565 13.172 54.8578C15.2625 55.5499 16.6779 57.4536 16.7743 59.635C15.3033 60.7336 13.4857 61.3928 11.5125 61.3928C9.53918 61.3928 7.72156 60.7336 6.25061 59.635ZM18.2025 58.3057C17.7753 56.4734 16.6235 54.8895 14.9963 53.9362C15.8771 53.0591 16.3898 51.8604 16.3898 50.5725C16.3898 47.9498 14.2554 45.8154 11.6327 45.8154C9.01001 45.8154 6.87561 47.9498 6.87561 50.5725C6.87561 51.8091 7.35474 52.9742 8.17871 53.8446C6.46667 54.7845 5.2594 56.4056 4.82178 58.3051C3.49731 56.7615 2.69165 54.7607 2.69165 52.572C2.69165 47.7075 6.64856 43.7506 11.5125 43.7506C16.3763 43.7506 20.3339 47.7075 20.3339 52.572C20.3339 54.7607 19.5276 56.7621 18.2025 58.3057Z" fill="#616161"/>
<path id="Vector_8" d="M22.7094 0.0549316C22.2992 -0.101318 21.8341 0.102539 21.6767 0.515747L20.6494 3.19824C20.4907 3.61084 20.6977 4.07349 21.1102 4.23096L23.7921 5.25879C23.8861 5.2948 23.9826 5.31189 24.0784 5.31189C24.4 5.31189 24.7034 5.11658 24.8248 4.79736C24.9835 4.38538 24.7766 3.92273 24.364 3.76465L23.5309 3.44543C26.1981 2.22595 29.0424 1.59973 32.0001 1.59973C35.1624 1.59973 38.1983 2.30652 41.0236 3.69995C41.1377 3.7561 41.258 3.78296 41.3764 3.78296C41.6718 3.78296 41.9556 3.61938 42.0947 3.33679C42.2907 2.94067 42.1271 2.46094 41.731 2.26562C38.6841 0.762329 35.4102 0 32.0001 0C28.7915 0 25.7068 0.683594 22.815 2.01477L23.1702 1.08765C23.3289 0.675049 23.122 0.212402 22.7094 0.0549316Z" fill="#616161"/>
<path id="Vector_9" d="M3.51501 43.3844C3.83667 43.3844 4.14001 43.1891 4.26147 42.8705L5.28931 40.188C5.44739 39.776 5.24048 39.3134 4.82788 39.1553C4.41772 38.9978 3.95325 39.2029 3.79517 39.6167L3.45825 40.4962C2.23022 37.8211 1.59973 34.9677 1.59973 32.0001C1.59973 28.8373 2.30652 25.8014 3.69995 22.9767C3.89587 22.5806 3.73291 22.1008 3.33679 21.9055C2.94006 21.7102 2.46094 21.8726 2.26562 22.2687C0.762329 25.3156 0 28.5901 0 32.0001C0 35.1941 0.67749 38.2666 1.99768 41.1475L1.11816 40.8112C0.708008 40.6549 0.24292 40.8588 0.0854492 41.272C-0.0726319 41.6846 0.133667 42.1466 0.546265 42.3047L3.22876 43.3313C3.32275 43.3673 3.4198 43.3844 3.51501 43.3844Z" fill="#616161"/>
<path id="Vector_10" d="M42.9016 59.7186L40.2185 58.6914C39.8083 58.5333 39.3438 58.739 39.1858 59.1522C39.0271 59.5648 39.2346 60.0275 39.6466 60.1849L40.5334 60.5249C37.8479 61.7645 34.981 62.3999 32.0001 62.3999C28.8373 62.3999 25.8014 61.6937 22.9767 60.3003C22.5799 60.105 22.1008 60.2673 21.9055 60.6634C21.7096 61.0596 21.8725 61.5393 22.2686 61.7346C25.3155 63.2373 28.5901 64.0002 32.0001 64.0002C35.205 64.0002 38.2873 63.3179 41.1761 61.9891L40.8416 62.8625C40.683 63.2751 40.8899 63.7378 41.3025 63.8953C41.3958 63.9313 41.4929 63.9484 41.5881 63.9484C41.9104 63.9484 42.2131 63.753 42.3352 63.4344L43.3624 60.7513C43.5211 60.3394 43.3142 59.8767 42.9016 59.7186Z" fill="#616161"/>
<path id="Vector_11" d="M62.8931 23.139C63.3032 23.2971 63.7677 23.0914 63.9258 22.6782C64.0839 22.2656 63.8776 21.803 63.465 21.6455L60.7819 20.6189C60.3729 20.4614 59.9078 20.6671 59.7492 21.0797L58.7225 23.7616C58.5638 24.1742 58.7714 24.6368 59.1834 24.7943C59.2773 24.8303 59.3744 24.8474 59.4696 24.8474C59.7913 24.8474 60.0946 24.6521 60.2167 24.3335L60.5377 23.4943C61.7688 26.1719 62.3999 29.0289 62.3999 32.0001C62.3999 35.1624 61.6937 38.1983 60.3003 41.0236C60.1038 41.4197 60.2673 41.8994 60.6635 42.0947C60.7776 42.1509 60.8978 42.1771 61.0162 42.1771C61.3117 42.1771 61.5955 42.0142 61.7346 41.731C63.2373 38.6841 64.0003 35.4102 64.0003 32.0001C64.0003 28.7811 63.3124 25.686 61.9721 22.7869L62.8931 23.139Z" fill="#616161"/>
</g>
<defs>
<clipPath id="clip0_2310_253">
<rect width="64" height="64" fill="white"/>
</clipPath>
</defs>
</svg>
