<svg width="72" height="72" viewBox="0 0 72 72" fill="none" xmlns="http://www.w3.org/2000/svg">
<g id="badge 1">
<path id="Vector" d="M67.1721 30.9584C68.1855 29.4505 68.4448 27.5944 67.8834 25.8662C67.322 24.1386 66.0212 22.7895 64.3145 22.1655L60.6407 20.8218C59.2515 20.3132 58.3187 19.0294 58.2649 17.5512L58.1226 13.6412C58.0562 11.8251 57.1745 10.1711 55.7045 9.10327C54.2351 8.0365 52.3894 7.70966 50.6431 8.20734L46.8809 9.2796C45.4554 9.685 43.9481 9.19501 43.0356 8.03046L40.6225 4.95209C39.5019 3.52167 37.8171 2.70154 36 2.70154C34.1829 2.70154 32.4981 3.52167 31.3775 4.95209L28.9644 8.03046C28.0514 9.19501 26.5424 9.685 25.1191 9.2796L21.3574 8.20789C19.6095 7.70966 17.7649 8.0365 16.2955 9.10327C14.8255 10.1711 13.9438 11.8251 13.8774 13.6417L13.7351 17.5507C13.6813 19.0294 12.7485 20.3132 11.3593 20.8218L7.68549 22.1655C5.97876 22.7895 4.67798 24.1386 4.11658 25.8662C3.55518 27.5944 3.81445 29.4505 4.82794 30.9584L7.01038 34.2037C7.836 35.432 7.836 37.0195 7.01038 38.2473L4.82794 41.4932C3.81445 43.001 3.55518 44.8572 4.11658 46.5853C4.67798 48.3129 5.97876 49.662 7.68549 50.2861L11.3593 51.6297C12.7485 52.1384 13.6813 53.4221 13.7351 54.9003L13.8774 58.8098C13.9438 60.6259 14.825 62.2793 16.2949 63.3477C17.766 64.4156 19.6106 64.743 21.3569 64.2442L25.1191 63.1719C26.5424 62.766 28.0514 63.256 28.9644 64.4211L31.3775 67.4995C32.4981 68.9299 34.1829 69.75 36 69.75C37.8171 69.75 39.5019 68.9299 40.6225 67.4995L43.0356 64.4211C43.9486 63.256 45.4554 62.766 46.8809 63.1719L50.6431 64.2442C52.3905 64.743 54.2362 64.415 55.7051 63.3477C57.175 62.2793 58.0562 60.6259 58.1226 58.8093L58.2649 54.9009C58.3187 53.4221 59.2515 52.1384 60.6407 51.6297L64.3145 50.2861C66.0212 49.662 67.322 48.3129 67.8834 46.5853C68.4448 44.8572 68.1855 43.001 67.1721 41.4932L64.9896 38.2478C64.164 37.0195 64.164 35.432 64.9896 34.2043L67.1721 30.9584ZM63.1219 39.503L65.3044 42.7489C65.93 43.6789 66.0899 44.8237 65.7433 45.8899C65.3972 46.9561 64.5947 47.7883 63.5422 48.1734L59.8683 49.517C57.6156 50.3405 56.1033 52.4218 56.016 54.819L55.8737 58.7274C55.8331 59.848 55.2892 60.8681 54.3823 61.5273C53.4754 62.1854 52.3372 62.3875 51.2595 62.0799L47.4972 61.0076C45.1912 60.3512 42.744 61.1455 41.2646 63.0335L38.8515 66.1119C38.1605 66.9941 37.1212 67.5 36 67.5C34.8788 67.5 33.8395 66.9941 33.1485 66.1119L30.7354 63.0335C29.6005 61.5855 27.897 60.7802 26.1238 60.7802C25.5855 60.7802 25.04 60.8549 24.5028 61.0076L20.7405 62.0799C19.6655 62.3886 18.5246 62.1859 17.6177 61.5273C16.7108 60.8681 16.1669 59.848 16.1263 58.728L15.984 54.8185C15.8967 52.4218 14.3844 50.3405 12.1317 49.517L8.45782 48.1734C7.40533 47.7883 6.60278 46.9561 6.25671 45.8899C5.9101 44.8237 6.06995 43.6789 6.69562 42.7489L8.87805 39.5024C10.2156 37.5117 10.2156 34.9398 8.87805 32.9485L6.69562 29.7026C6.06995 28.7726 5.9101 27.6279 6.25671 26.5616C6.60278 25.4954 7.40533 24.6632 8.45782 24.2781L12.1317 22.9345C14.3844 22.1111 15.8967 20.0297 15.984 17.6325L16.1263 13.7236C16.1669 12.603 16.7108 11.5829 17.6177 10.9237C18.524 10.2651 19.6628 10.0629 20.7405 10.3716L24.5028 11.4439C26.8077 12.0992 29.2549 11.3055 30.7354 9.41803L33.1485 6.33966C33.8395 5.45746 34.8788 4.95154 36 4.95154C37.1212 4.95154 38.1605 5.45746 38.8515 6.33966L41.2646 9.41803C42.7445 11.3055 45.1906 12.0987 47.4972 11.4439L51.26 10.3711C52.3383 10.0651 53.476 10.2651 54.3823 10.9237C55.2892 11.5829 55.8331 12.603 55.8737 13.723L56.016 17.6331C56.1033 20.0297 57.6156 22.1111 59.8683 22.9345L63.5422 24.2781C64.5947 24.6632 65.3972 25.4954 65.7433 26.5616C66.0899 27.6279 65.93 28.7726 65.3044 29.7026L63.1219 32.9491C61.7844 34.9398 61.7844 37.5117 63.1219 39.503Z" fill="#616161"/>
<path id="Vector_2" d="M36 14.6799C24.1194 14.6799 14.4542 24.3452 14.4542 36.2258C14.4542 48.1064 24.1194 57.7716 36 57.7716C47.8806 57.7716 57.5458 48.1064 57.5458 36.2258C57.5458 24.3452 47.8806 14.6799 36 14.6799ZM36 55.5216C25.3603 55.5216 16.7042 46.8655 16.7042 36.2258C16.7042 25.5861 25.3603 16.9299 36 16.9299C46.6397 16.9299 55.2958 25.5861 55.2958 36.2258C55.2958 46.8655 46.6397 55.5216 36 55.5216Z" fill="#616161"/>
<path id="Vector_3" d="M39.3684 43.3839H37.2036V25.3911C37.2036 24.9362 36.9294 24.5259 36.5092 24.3517C36.0868 24.1771 35.605 24.2726 35.2831 24.5956L32.3635 27.5153C31.9241 27.9547 31.9241 28.6666 32.3635 29.1061C32.803 29.5455 33.5149 29.5455 33.9543 29.1061L34.9536 28.1069V43.3839H32.6316C32.0103 43.3839 31.5066 43.8876 31.5066 44.5089C31.5066 45.1302 32.0103 45.6339 32.6316 45.6339H39.3684C39.9897 45.6339 40.4934 45.1302 40.4934 44.5089C40.4934 43.8876 39.9897 43.3839 39.3684 43.3839Z" fill="#616161"/>
</g>
</svg>
